<svg xmlns="http://www.w3.org/2000/svg" height="24" viewBox="0 -960 960 960" width="24"><path d="M479.841-139.233q-30.59 0-52.215-21.784-21.625-21.784-21.625-52.374 0-30.59 21.784-52.214 21.784-21.625 52.374-21.625 30.59 0 52.215 21.784 21.625 21.784 21.625 52.374 0 30.59-21.784 52.215-21.784 21.624-52.374 21.624Zm0-266.768q-30.59 0-52.215-21.784-21.625-21.784-21.625-52.374 0-30.59 21.784-52.215 21.784-21.625 52.374-21.625 30.59 0 52.215 21.784 21.625 21.784 21.625 52.374 0 30.59-21.784 52.215-21.784 21.625-52.374 21.625Zm0-266.769q-30.59 0-52.215-21.784-21.625-21.784-21.625-52.374 0-30.59 21.784-52.215 21.784-21.624 52.374-21.624 30.59 0 52.215 21.784 21.625 21.784 21.625 52.374 0 30.59-21.784 52.214-21.784 21.625-52.374 21.625Z"/></svg>